# xmcd
#
# Track frame offsets: 
#        150
#        17667
#        31497
#        40037
#        50817
#        66400
#        78080
#        89337
#        102092
#        110715
#        117782
#        126475
#
# Disc length: 1841 seconds
#
# Revision: 2
# Processed by: cddbd v1.4PL0 Copyright (c) Steve Scherf et al.
# Submitted via: ExactAudioCopy v0.90b3
#
DISCID=9f072f0c
DTITLE=Willie Nelson - Who'll Buy My Memories - Disc 2
DYEAR=1900
DGENRE=Country
TTITLE0=Summer Of Roses - December Day
TTITLE1=Pretend I Never Happened
TTITLE2=Slow Down Old World
TTITLE3=Opportunity To Cry
TTITLE4=I'm Falling In Love Again
TTITLE5=If You Could Only See
TTITLE6=I'd Rather You Didn't Love Me
TTITLE7=What Can You Do To Me Now
TTITLE8=Buddy
TTITLE9=Remember The Good Times
TTITLE10=Wake Me When It's Over
TTITLE11=Home Hotel
EXTD=
EXTT0=
EXTT1=
EXTT2=
EXTT3=
EXTT4=
EXTT5=
EXTT6=
EXTT7=
EXTT8=
EXTT9=
EXTT10=
EXTT11=
PLAYORDER=
